<svg width="284" height="142" viewBox="0 0 284 142" fill="none" xmlns="http://www.w3.org/2000/svg">
<mask id="path-1-inside-1_96_4037" fill="white">
<path fill-rule="evenodd" clip-rule="evenodd" d="M24 0C10.7452 0 0 10.7452 0 24V111C0 124.255 10.7452 135 24 135H239C244.282 135 249.264 133.72 253.655 131.454C269.671 144.338 283.5 141 283.5 141C283.5 141 270.527 131.871 270.958 104.662C270.986 104.112 271 103.558 271 103C271.022 102.385 271.021 101.8 271 101.246V24C271 10.7452 260.255 0 247 0H24Z"/>
</mask>
<path d="M253.655 131.454L254.909 129.896L253.894 129.08L252.738 129.677L253.655 131.454ZM283.5 141L283.969 142.944L288.265 141.907L284.651 139.364L283.5 141ZM270.958 104.662L268.96 104.56L268.958 104.595L268.958 104.631L270.958 104.662ZM271 103L269.001 102.93L269 102.965V103H271ZM271 101.246H269V101.284L269.001 101.322L271 101.246ZM2 24C2 11.8497 11.8497 2 24 2V-2C9.6406 -2 -2 9.6406 -2 24H2ZM2 111V24H-2V111H2ZM24 133C11.8497 133 2 123.15 2 111H-2C-2 125.359 9.64059 137 24 137V133ZM239 133H24V137H239V133ZM252.738 129.677C248.624 131.8 243.955 133 239 133V137C244.608 137 249.905 135.641 254.572 133.232L252.738 129.677ZM252.401 133.013C260.71 139.697 268.514 142.216 274.302 143.039C277.189 143.449 279.562 143.436 281.233 143.315C282.069 143.255 282.73 143.168 283.193 143.093C283.425 143.055 283.608 143.021 283.738 142.995C283.803 142.981 283.855 142.97 283.894 142.962C283.913 142.957 283.929 142.954 283.942 142.951C283.948 142.949 283.953 142.948 283.958 142.947C283.96 142.946 283.962 142.946 283.964 142.945C283.965 142.945 283.966 142.945 283.967 142.945C283.968 142.944 283.969 142.944 283.5 141C283.031 139.056 283.032 139.056 283.033 139.055C283.033 139.055 283.034 139.055 283.034 139.055C283.035 139.055 283.036 139.054 283.037 139.054C283.038 139.054 283.039 139.054 283.038 139.054C283.037 139.054 283.033 139.055 283.026 139.057C283.011 139.06 282.984 139.066 282.944 139.074C282.864 139.09 282.733 139.115 282.556 139.144C282.2 139.201 281.656 139.274 280.945 139.325C279.523 139.428 277.437 139.444 274.865 139.079C269.735 138.349 262.616 136.096 254.909 129.896L252.401 133.013ZM283.5 141C284.651 139.364 284.652 139.365 284.653 139.366C284.653 139.366 284.654 139.367 284.655 139.367C284.656 139.368 284.657 139.369 284.658 139.369C284.659 139.37 284.66 139.371 284.66 139.371C284.66 139.371 284.656 139.368 284.65 139.364C284.638 139.355 284.614 139.337 284.579 139.31C284.509 139.255 284.395 139.164 284.244 139.035C283.941 138.776 283.487 138.361 282.934 137.775C281.828 136.604 280.32 134.743 278.811 132.056C275.803 126.694 272.747 117.961 272.957 104.694L268.958 104.631C268.737 118.572 271.953 128.008 275.323 134.013C277.004 137.009 278.713 139.131 280.025 140.521C280.682 141.216 281.238 141.728 281.643 142.074C281.846 142.247 282.01 142.379 282.13 142.472C282.19 142.518 282.238 142.555 282.275 142.582C282.294 142.596 282.309 142.607 282.321 142.616C282.328 142.62 282.333 142.624 282.338 142.628C282.34 142.629 282.342 142.631 282.344 142.632C282.345 142.633 282.346 142.634 282.347 142.634C282.348 142.635 282.349 142.636 283.5 141ZM269 103C269 103.523 268.987 104.044 268.96 104.56L272.955 104.764C272.985 104.18 273 103.592 273 103H269ZM272.999 103.07C273.022 102.41 273.022 101.777 272.999 101.169L269.001 101.322C269.021 101.824 269.021 102.36 269.001 102.93L272.999 103.07ZM269 24V101.246H273V24H269ZM247 2C259.15 2 269 11.8497 269 24H273C273 9.6406 261.359 -2 247 -2V2ZM24 2H247V-2H24V2Z" fill="white" mask="url(#path-1-inside-1_96_4037)"/>
</svg>
