<svg width="283" height="98" viewBox="0 0 283 98" fill="none" xmlns="http://www.w3.org/2000/svg">
<mask id="path-1-inside-1_96_4040" fill="white">
<path fill-rule="evenodd" clip-rule="evenodd" d="M259 0C272.255 0 283 10.7452 283 24V67C283 80.2548 272.255 91 259 91H44C38.8406 91 33.9664 89.779 29.6506 87.6101C13.7175 100.311 0 97 0 97C0 97 11.6781 88.7821 12.5067 64.7028C12.1738 62.8522 12 60.9464 12 59V24C12 10.7452 22.7452 0 36 0H259Z"/>
</mask>
<path d="M29.6506 87.6101L28.4039 86.0462L29.4049 85.2483L30.5486 85.8231L29.6506 87.6101ZM0 97L-0.469285 98.9442L-4.76466 97.9073L-1.15099 95.3644L0 97ZM12.5067 64.7028L14.4751 64.3487L14.5128 64.5585L14.5055 64.7716L12.5067 64.7028ZM281 24C281 11.8497 271.15 2 259 2V-2C273.359 -2 285 9.6406 285 24H281ZM281 67V24H285V67H281ZM259 89C271.15 89 281 79.1503 281 67H285C285 81.3594 273.359 93 259 93V89ZM44 89H259V93H44V89ZM30.5486 85.8231C34.5921 87.8551 39.1595 89 44 89V93C38.5217 93 33.3407 91.7029 28.7525 89.3972L30.5486 85.8231ZM30.8972 89.1741C22.6299 95.7643 14.8761 98.2429 9.128 99.0486C6.26126 99.4504 3.90573 99.4346 2.24681 99.3136C1.41721 99.2531 0.760992 99.1662 0.301058 99.0918C0.0710473 99.0546 -0.110029 99.0204 -0.239322 98.9942C-0.303974 98.9811 -0.355698 98.97 -0.394138 98.9615C-0.413358 98.9572 -0.42926 98.9536 -0.441799 98.9507C-0.448068 98.9492 -0.453497 98.9479 -0.45808 98.9468C-0.460371 98.9463 -0.462451 98.9458 -0.464319 98.9454C-0.465252 98.9451 -0.466495 98.9448 -0.466961 98.9447C-0.468149 98.9444 -0.469285 98.9442 0 97C0.469285 95.0558 0.468254 95.0556 0.467275 95.0554C0.467018 95.0553 0.466089 95.0551 0.465573 95.0549C0.464542 95.0547 0.463715 95.0545 0.463092 95.0544C0.461848 95.0541 0.46142 95.054 0.461805 95.0541C0.462575 95.0542 0.466591 95.0552 0.473812 95.0568C0.488254 95.06 0.515502 95.0659 0.55521 95.0739C0.634637 95.09 0.763832 95.1146 0.940028 95.1432C1.29251 95.2002 1.83245 95.2728 2.53782 95.3242C3.94883 95.4271 6.0185 95.4453 8.57277 95.0873C13.6667 94.3733 20.7381 92.157 28.4039 86.0462L30.8972 89.1741ZM0 97C-1.15099 95.3644 -1.15202 95.3651 -1.153 95.3658C-1.15327 95.366 -1.15422 95.3667 -1.15476 95.367C-1.15584 95.3678 -1.15674 95.3685 -1.15747 95.369C-1.15893 95.37 -1.1597 95.3706 -1.15978 95.3706C-1.15994 95.3707 -1.15736 95.3689 -1.15212 95.365C-1.14163 95.3573 -1.12052 95.3416 -1.08944 95.3176C-1.02729 95.2697 -0.925334 95.189 -0.78895 95.0735C-0.516168 94.8425 -0.10581 94.4729 0.399253 93.9501C1.40895 92.9049 2.79853 91.2462 4.22532 88.856C7.07157 84.0879 10.1049 76.3437 10.5078 64.634L14.5055 64.7716C14.0799 77.1412 10.8599 85.5456 7.65994 90.9062C6.06363 93.5804 4.48189 95.4811 3.27605 96.7293C2.67335 97.3532 2.16488 97.8137 1.79578 98.1262C1.61122 98.2825 1.46147 98.4018 1.35215 98.486C1.29749 98.5281 1.25292 98.5615 1.21917 98.5864C1.20229 98.5988 1.18811 98.6091 1.17672 98.6173C1.17102 98.6214 1.16602 98.625 1.16173 98.628C1.15958 98.6295 1.15761 98.6309 1.15582 98.6322C1.15493 98.6328 1.15372 98.6337 1.15327 98.634C1.15211 98.6348 1.15099 98.6356 0 97ZM14 59C14 60.8271 14.1631 62.6145 14.4751 64.3487L10.5382 65.0569C10.1844 63.09 10 61.0657 10 59H14ZM14 24V59H10V24H14ZM36 2C23.8497 2 14 11.8497 14 24H10C10 9.6406 21.6406 -2 36 -2V2ZM259 2H36V-2H259V2Z" fill="white" mask="url(#path-1-inside-1_96_4040)"/>
</svg>
