<svg width="172" height="98" viewBox="0 0 172 98" fill="none" xmlns="http://www.w3.org/2000/svg">
<mask id="path-1-inside-1_96_4052" fill="white">
<path fill-rule="evenodd" clip-rule="evenodd" d="M24 0C10.7452 0 0 10.7452 0 24V67C0 80.2548 10.7452 91 24 91H128C133.159 91 138.034 89.779 142.349 87.6101C158.282 100.311 172 97 172 97C172 97 160.322 88.7821 159.493 64.7028C159.826 62.8522 160 60.9464 160 59V24C160 10.7452 149.255 0 136 0H24Z"/>
</mask>
<path d="M142.349 87.6101L143.596 86.0462L142.595 85.2483L141.451 85.8231L142.349 87.6101ZM172 97L172.469 98.9442L176.765 97.9073L173.151 95.3644L172 97ZM159.493 64.7028L157.525 64.3487L157.487 64.5585L157.495 64.7716L159.493 64.7028ZM2 24C2 11.8497 11.8497 2 24 2V-2C9.6406 -2 -2 9.6406 -2 24H2ZM2 67V24H-2V67H2ZM24 89C11.8497 89 2 79.1503 2 67H-2C-2 81.3594 9.64059 93 24 93V89ZM128 89H24V93H128V89ZM141.451 85.8231C137.408 87.8551 132.841 89 128 89V93C133.478 93 138.659 91.7029 143.247 89.3972L141.451 85.8231ZM141.103 89.1741C149.37 95.7643 157.124 98.2429 162.872 99.0486C165.739 99.4504 168.094 99.4346 169.753 99.3136C170.583 99.2531 171.239 99.1662 171.699 99.0918C171.929 99.0546 172.11 99.0204 172.239 98.9942C172.304 98.9811 172.356 98.97 172.394 98.9615C172.413 98.9572 172.429 98.9536 172.442 98.9507C172.448 98.9492 172.453 98.9479 172.458 98.9468C172.46 98.9463 172.462 98.9458 172.464 98.9454C172.465 98.9451 172.466 98.9448 172.467 98.9447C172.468 98.9444 172.469 98.9442 172 97C171.531 95.0558 171.532 95.0556 171.533 95.0554C171.533 95.0553 171.534 95.0551 171.534 95.0549C171.535 95.0547 171.536 95.0545 171.537 95.0544C171.538 95.0541 171.539 95.054 171.538 95.0541C171.537 95.0542 171.533 95.0552 171.526 95.0568C171.512 95.06 171.484 95.0659 171.445 95.0739C171.365 95.09 171.236 95.1146 171.06 95.1432C170.707 95.2002 170.168 95.2728 169.462 95.3242C168.051 95.4271 165.981 95.4453 163.427 95.0873C158.333 94.3733 151.262 92.157 143.596 86.0462L141.103 89.1741ZM172 97C173.151 95.3644 173.152 95.3651 173.153 95.3658C173.153 95.366 173.154 95.3667 173.155 95.367C173.156 95.3678 173.157 95.3685 173.157 95.369C173.159 95.37 173.16 95.3706 173.16 95.3706C173.16 95.3707 173.157 95.3689 173.152 95.365C173.142 95.3573 173.121 95.3416 173.089 95.3176C173.027 95.2697 172.925 95.189 172.789 95.0735C172.516 94.8425 172.106 94.4729 171.601 93.9501C170.591 92.9049 169.201 91.2462 167.775 88.856C164.928 84.0879 161.895 76.3437 161.492 64.634L157.495 64.7716C157.92 77.1412 161.14 85.5456 164.34 90.9062C165.936 93.5804 167.518 95.4811 168.724 96.7293C169.327 97.3532 169.835 97.8137 170.204 98.1262C170.389 98.2825 170.539 98.4018 170.648 98.486C170.703 98.5281 170.747 98.5615 170.781 98.5864C170.798 98.5988 170.812 98.6091 170.823 98.6173C170.829 98.6214 170.834 98.625 170.838 98.628C170.84 98.6295 170.842 98.6309 170.844 98.6322C170.845 98.6328 170.846 98.6337 170.847 98.634C170.848 98.6348 170.849 98.6356 172 97ZM158 59C158 60.8271 157.837 62.6145 157.525 64.3487L161.462 65.0569C161.816 63.09 162 61.0657 162 59H158ZM158 24V59H162V24H158ZM136 2C148.15 2 158 11.8497 158 24H162C162 9.6406 150.359 -2 136 -2V2ZM24 2H136V-2H24V2Z" fill="white" mask="url(#path-1-inside-1_96_4052)"/>
</svg>
